<svg xmlns="http://www.w3.org/2000/svg" viewBox="0 0 64 64" width="64" height="64" role="img" aria-label="蔬菜价格计算">
  <rect width="64" height="64" rx="14" fill="#3f7d3a"/>

  <!-- 芽（茎と 二葉） -->
  <path d="M32 20 V12" stroke="#d7ecc6" stroke-width="3" stroke-linecap="round" fill="none"/>
  <path d="M32 14 C 26 14, 22 11, 21 6 C 27 5, 31 8, 32 14 Z" fill="#a8dc84"/>
  <path d="M32 16 C 38 16, 42 13, 43 8 C 37 7, 33 10, 32 16 Z" fill="#8ccb63"/>

  <!-- 電卓本体 -->
  <rect x="14" y="20" width="36" height="38" rx="6" fill="#ffffff"/>
  <!-- 表示部 -->
  <rect x="19" y="25" width="26" height="9" rx="2.5" fill="#d9e7d2"/>
  <!-- キー -->
  <g fill="#4f8a45">
    <rect x="19" y="39" width="7" height="6" rx="2"/>
    <rect x="28.5" y="39" width="7" height="6" rx="2"/>
    <rect x="38" y="39" width="7" height="6" rx="2"/>
    <rect x="19" y="48" width="7" height="6" rx="2"/>
    <rect x="28.5" y="48" width="7" height="6" rx="2"/>
    <rect x="38" y="48" width="7" height="6" rx="2"/>
  </g>
</svg>
